<?xml version="1.0" encoding="UTF-8" standalone="no"?>
<!-- Created with Inkscape (http://www.inkscape.org/) -->

<svg
   width="16.516876mm"
   height="15.51482mm"
   viewBox="0 0 16.516876 15.51482"
   version="1.1"
   id="svg1"
   xml:space="preserve"
   inkscape:version="1.3 (0e150ed6c4, 2023-07-21)"
   sodipodi:docname="main.svg"
   xmlns:inkscape="http://www.inkscape.org/namespaces/inkscape"
   xmlns:sodipodi="http://sodipodi.sourceforge.net/DTD/sodipodi-0.dtd"
   xmlns="http://www.w3.org/2000/svg"
   xmlns:svg="http://www.w3.org/2000/svg"><sodipodi:namedview
     id="namedview1"
     pagecolor="#ffffff"
     bordercolor="#000000"
     borderopacity="0.25"
     inkscape:showpageshadow="2"
     inkscape:pageopacity="0.0"
     inkscape:pagecheckerboard="0"
     inkscape:deskcolor="#d1d1d1"
     inkscape:document-units="mm"
     showguides="true"
     inkscape:zoom="1.0158963"
     inkscape:cx="249.04117"
     inkscape:cy="178.65997"
     inkscape:window-width="1920"
     inkscape:window-height="974"
     inkscape:window-x="-11"
     inkscape:window-y="-11"
     inkscape:window-maximized="1"
     inkscape:current-layer="g18"><sodipodi:guide
       position="-58.96739,156.55305"
       orientation="1,0"
       id="guide2"
       inkscape:locked="false" /><sodipodi:guide
       position="-54.521434,157.43219"
       orientation="0,-1"
       id="guide3"
       inkscape:locked="false" /><sodipodi:guide
       position="-51.858882,149.09288"
       orientation="1,0"
       id="guide4"
       inkscape:locked="false" /><sodipodi:guide
       position="-56.615364,146.51689"
       orientation="0,-1"
       id="guide5"
       inkscape:locked="false" /></sodipodi:namedview><defs
     id="defs1" /><g
     inkscape:label="Art"
     inkscape:groupmode="layer"
     id="layer1"
     transform="translate(-111.9421,-12.850659)"><g
       inkscape:groupmode="layer"
       id="layer5"
       inkscape:label="ABXY Button"><g
         inkscape:groupmode="layer"
         id="layer9"
         inkscape:label="Button Y Base"
         inkscape:export-filename="button_y_base.svg"
         inkscape:export-xdpi="96"
         inkscape:export-ydpi="96"><path
           style="display:inline;fill:#eb111d;fill-opacity:1;stroke-width:2.117;stroke-linejoin:round;stroke-miterlimit:3.1;paint-order:markers stroke fill"
           d="m 121.579,13.413105 c 0,0 5.68854,2.64583 5.82084,5.65546 0.13229,3.00964 -2.14974,7.73907 -4.99401,8.26823 -2.84428,0.52917 -10.71562,-3.5388 -9.59114,-6.54843 1.12448,-3.00964 1.52135,-5.72162 3.43957,-6.58151 1.91823,-0.8599 5.32474,-0.79375 5.32474,-0.79375 z"
           id="path229-8-4-6" /><path
           id="path197-9-4-1"
           style="fill:#000000;fill-opacity:1;stroke-width:2.117;stroke-linejoin:round;stroke-miterlimit:3.1;paint-order:markers stroke fill"
           d="m 128.45568,20.554085 c 0.12573,-3.61969 -3.35433,-7.52852 -7.67567,-7.69068 -4.00326,-0.1502 -8.31109,0.94415 -8.82056,7.7486 -0.32507,4.34208 3.98236,7.42027 7.57484,7.71848 5.00379,0.41547 8.75235,-2.91005 8.92139,-7.7764 z m -9.07603,5.32237 c -2.90691,-0.1552 -5.80257,-3.06201 -5.56534,-6.034 0.20903,-2.61902 1.83987,-5.603 5.68701,-5.44742 3.44936,0.13953 7.19068,1.38103 6.93059,6.13364 -0.21844,3.9916 -3.43224,5.54077 -7.05226,5.34778 z"
           sodipodi:nodetypes="ssssssssss" /><path
           style="fill:#ffffff;fill-opacity:1;stroke-width:2.117;stroke-linejoin:round;stroke-miterlimit:3.1;paint-order:markers stroke fill"
           d="m 119.3177,20.167245 c -0.51388,-0.4992 -3.20874,-1.98716 -2.81232,-2.51572 0.39643,-0.52856 1.32141,-0.69007 1.77657,-0.2496 0.45515,0.44047 1.571,1.55633 1.71783,1.4976 0.14682,-0.0587 1.40951,-1.79125 1.92338,-1.7472 0.51389,0.044 1.70316,-0.13214 1.55634,0.32301 -0.14683,0.45515 -2.27576,2.26108 -2.43727,2.64283 -0.1615,0.38173 -0.33769,2.74559 -0.1615,2.92178 0.17618,0.17619 0.39641,0.14683 0.17618,0.29365 -0.22023,0.14682 -0.32787,0.81968 -1.05713,0.26428 -0.65301,-0.49733 -0.90476,-0.86571 -0.6607,-1.51228 0.20824,-0.55168 -0.0214,-1.91835 -0.0214,-1.91835 z"
           id="path201"
           sodipodi:nodetypes="cssssssssssc" /></g></g></g></svg>
