<?xml version="1.0" encoding="UTF-8" standalone="no"?>
<!-- Created with Inkscape (http://www.inkscape.org/) -->

<svg
   width="16.516876mm"
   height="15.514819mm"
   viewBox="0 0 16.516876 15.514819"
   version="1.1"
   id="svg1"
   xml:space="preserve"
   inkscape:version="1.3 (0e150ed6c4, 2023-07-21)"
   sodipodi:docname="main.svg"
   xmlns:inkscape="http://www.inkscape.org/namespaces/inkscape"
   xmlns:sodipodi="http://sodipodi.sourceforge.net/DTD/sodipodi-0.dtd"
   xmlns="http://www.w3.org/2000/svg"
   xmlns:svg="http://www.w3.org/2000/svg"><sodipodi:namedview
     id="namedview1"
     pagecolor="#ffffff"
     bordercolor="#000000"
     borderopacity="0.25"
     inkscape:showpageshadow="2"
     inkscape:pageopacity="0.0"
     inkscape:pagecheckerboard="0"
     inkscape:deskcolor="#d1d1d1"
     inkscape:document-units="mm"
     showguides="true"
     inkscape:zoom="1.0158963"
     inkscape:cx="249.04117"
     inkscape:cy="178.65997"
     inkscape:window-width="1920"
     inkscape:window-height="974"
     inkscape:window-x="-11"
     inkscape:window-y="-11"
     inkscape:window-maximized="1"
     inkscape:current-layer="g18"><sodipodi:guide
       position="-2.4969185,156.18894"
       orientation="1,0"
       id="guide2"
       inkscape:locked="false" /><sodipodi:guide
       position="1.9490375,157.06808"
       orientation="0,-1"
       id="guide3"
       inkscape:locked="false" /><sodipodi:guide
       position="4.6115895,148.72877"
       orientation="1,0"
       id="guide4"
       inkscape:locked="false" /><sodipodi:guide
       position="-0.14489252,146.15278"
       orientation="0,-1"
       id="guide5"
       inkscape:locked="false" /></sodipodi:namedview><defs
     id="defs1"><inkscape:path-effect
       effect="fillet_chamfer"
       id="path-effect199-9"
       is_visible="true"
       lpeversion="1"
       nodesatellites_param="F,0,0,1,0,0,0,1 @ F,0,0,1,0,0,0,1 @ F,0,0,1,0,0,0,1 @ F,0,0,1,0,0,0,1 @ F,0,0,1,0,0.42985521,0,1 @ F,0,0,1,0,0,0,1 @ F,0,1,1,0,0.42985521,0,1 @ F,0,0,1,0,0,0,1 @ F,0,0,1,0,0,0,1 @ F,0,0,1,0,0,0,1 @ F,0,0,1,0,0,0,1 | F,0,0,1,0,0,0,1 @ F,0,0,1,0,0,0,1 @ F,0,0,1,0,0,0,1 @ F,0,0,1,0,0,0,1"
       radius="0"
       unit="px"
       method="auto"
       mode="F"
       chamfer_steps="1"
       flexible="false"
       use_knot_distance="true"
       apply_no_radius="true"
       apply_with_radius="true"
       only_selected="false"
       hide_knots="false" /></defs><g
     inkscape:label="Art"
     inkscape:groupmode="layer"
     id="layer1"
     transform="translate(-55.471631,-12.486549)"><g
       inkscape:groupmode="layer"
       id="layer5"
       inkscape:label="ABXY Button"><g
         inkscape:groupmode="layer"
         id="layer6"
         inkscape:label="Button A Base"
         inkscape:export-filename="button_a_base.svg"
         inkscape:export-xdpi="96"
         inkscape:export-ydpi="96"><path
           style="display:inline;fill:#eb111d;fill-opacity:1;stroke-width:2.117;stroke-linejoin:round;stroke-miterlimit:3.1;paint-order:markers stroke fill"
           d="m 64.998195,13.007225 c 0,0 5.68854,2.64583 5.82084,5.65546 0.13229,3.00964 -2.14974,7.73907 -4.99401,8.26823 -2.844277,0.52917 -10.715627,-3.5388 -9.591147,-6.54843 1.12448,-3.00964 1.52135,-5.72162 3.43958,-6.58151 1.91823,-0.8599 5.324737,-0.79375 5.324737,-0.79375 z"
           id="path229" /><path
           id="path197"
           style="fill:#000000;fill-opacity:1;stroke-width:2.117;stroke-linejoin:round;stroke-miterlimit:3.1;paint-order:markers stroke fill"
           d="m 71.985202,20.189975 c 0.12573,-3.61969 -3.354327,-7.52852 -7.675667,-7.69068 -4.003257,-0.1502 -8.311097,0.94415 -8.820557,7.7486 -0.32508,4.34208 3.98236,7.42027 7.57484,7.71848 5.003787,0.41547 8.752344,-2.91005 8.921384,-7.7764 z m -9.076024,5.32237 c -2.90691,-0.1552 -5.80258,-3.06201 -5.56535,-6.034 0.20903,-2.61902 1.83987,-5.603 5.68702,-5.44742 3.449357,0.13953 7.190677,1.38103 6.930587,6.13364 -0.21844,3.9916 -3.43224,5.54077 -7.052257,5.34778 z"
           sodipodi:nodetypes="ssssssssss" /><path
           id="path198"
           style="fill:#ffffff;fill-opacity:1;stroke-width:2.0434;stroke-linejoin:round;stroke-miterlimit:3.1;paint-order:markers stroke fill"
           d="m 119.309,155.42772 c -1.58362,0.11176 -2.06006,2.34846 -2.51199,3.58686 -0.3638,1.02526 -0.31417,3.00964 0.0992,3.25769 0.41341,0.24805 0.77722,0.3638 0.8599,-0.59532 0.0853,-0.56207 -0.0109,-0.87674 0.088,-1.59296 0.0324,-0.23471 0.26069,-0.3785 0.49464,-0.33834 0.43285,0.0743 0.85937,0.1099 1.2579,0.1099 0.44261,0 0.95145,-0.0393 1.32427,-0.0942 0.23416,-0.0345 0.44526,0.10413 0.45735,0.34117 0.0579,1.13555 -0.23262,1.83572 0.14813,2.20288 0.46302,0.44648 0.97565,0.79377 1.19063,-0.0331 0.21497,-0.82682 -0.0827,-4.18373 -1.09141,-5.57279 -0.69349,-0.95499 -1.62169,-1.27669 -2.31665,-1.27176 z m 0.25269,1.36839 c 0.73364,0.36381 1.79382,1.66055 1.22078,1.81861 -0.71668,0.19767 -2.19953,0.13241 -2.4636,-0.1815 -0.0564,-0.067 0.19608,-0.48792 0.42944,-0.82424 0.3514,-0.50643 0.62347,-0.79696 0.81338,-0.81287 z"
           sodipodi:nodetypes="sssccscssssscsssc"
           inkscape:path-effect="#path-effect199-9"
           inkscape:original-d="m 119.309,155.42772 c -1.58362,0.11176 -2.06006,2.34846 -2.51199,3.58686 -0.3638,1.02526 -0.31417,3.00964 0.0992,3.25769 0.41341,0.24805 0.77722,0.3638 0.8599,-0.59532 0.10045,-0.66179 -0.0508,-0.9806 0.16123,-2.01569 0.57534,0.13193 1.15184,0.19429 1.67933,0.19429 0.65443,0 1.45363,-0.086 1.74391,-0.18118 0.17509,1.39069 -0.24063,2.21973 0.18584,2.63098 0.46302,0.44648 0.97565,0.79377 1.19063,-0.0331 0.21497,-0.82682 -0.0827,-4.18373 -1.09141,-5.57279 -0.69349,-0.95499 -1.62169,-1.27669 -2.31665,-1.27176 z m 0.25269,1.36839 c 0.73364,0.36381 1.79382,1.66055 1.22078,1.81861 -0.71668,0.19767 -2.19953,0.13241 -2.4636,-0.1815 -0.0564,-0.067 0.19608,-0.48792 0.42944,-0.82424 0.3514,-0.50643 0.62347,-0.79696 0.81338,-0.81287 z"
           transform="matrix(1.0360188,0,0,1.0360188,-60.027495,-145.04867)" /></g></g></g></svg>
