<?xml version="1.0" encoding="UTF-8" standalone="no"?>
<!-- Created with Inkscape (http://www.inkscape.org/) -->

<svg
   width="16.516876mm"
   height="15.514819mm"
   viewBox="0 0 16.516876 15.514819"
   version="1.1"
   id="svg1"
   xml:space="preserve"
   inkscape:version="1.3 (0e150ed6c4, 2023-07-21)"
   sodipodi:docname="main.svg"
   xmlns:inkscape="http://www.inkscape.org/namespaces/inkscape"
   xmlns:sodipodi="http://sodipodi.sourceforge.net/DTD/sodipodi-0.dtd"
   xmlns="http://www.w3.org/2000/svg"
   xmlns:svg="http://www.w3.org/2000/svg"><sodipodi:namedview
     id="namedview1"
     pagecolor="#ffffff"
     bordercolor="#000000"
     borderopacity="0.25"
     inkscape:showpageshadow="2"
     inkscape:pageopacity="0.0"
     inkscape:pagecheckerboard="0"
     inkscape:deskcolor="#d1d1d1"
     inkscape:document-units="mm"
     showguides="true"
     inkscape:zoom="1.0158963"
     inkscape:cx="249.04117"
     inkscape:cy="178.65997"
     inkscape:window-width="1920"
     inkscape:window-height="974"
     inkscape:window-x="-11"
     inkscape:window-y="-11"
     inkscape:window-maximized="1"
     inkscape:current-layer="g18"><sodipodi:guide
       position="-39.956335,156.26771"
       orientation="1,0"
       id="guide2"
       inkscape:locked="false" /><sodipodi:guide
       position="-35.510379,157.14685"
       orientation="0,-1"
       id="guide3"
       inkscape:locked="false" /><sodipodi:guide
       position="-32.847827,148.80754"
       orientation="1,0"
       id="guide4"
       inkscape:locked="false" /><sodipodi:guide
       position="-37.604309,146.23155"
       orientation="0,-1"
       id="guide5"
       inkscape:locked="false" /></sodipodi:namedview><defs
     id="defs1" /><g
     inkscape:label="Art"
     inkscape:groupmode="layer"
     id="layer1"
     transform="translate(-92.931048,-12.56532)"><g
       inkscape:groupmode="layer"
       id="layer5"
       inkscape:label="ABXY Button"><g
         inkscape:groupmode="layer"
         id="layer8"
         inkscape:label="Button X Base"
         inkscape:export-filename="button_x_base.svg"
         inkscape:export-xdpi="96"
         inkscape:export-ydpi="96"><path
           style="display:inline;fill:#eb111d;fill-opacity:1;stroke-width:2.117;stroke-linejoin:round;stroke-miterlimit:3.1;paint-order:markers stroke fill"
           d="m 102.80915,13.268075 c 0,0 5.68854,2.64583 5.82084,5.65546 0.13229,3.00964 -2.14974,7.73907 -4.99401,8.26823 -2.84428,0.52917 -10.715618,-3.5388 -9.591138,-6.54843 1.12448,-3.00964 1.52135,-5.72162 3.43957,-6.58151 1.91823,-0.8599 5.324738,-0.79375 5.324738,-0.79375 z"
           id="path229-8-4" /><path
           id="path197-9-4"
           style="fill:#000000;fill-opacity:1;stroke-width:2.117;stroke-linejoin:round;stroke-miterlimit:3.1;paint-order:markers stroke fill"
           d="m 109.44462,20.268745 c 0.12573,-3.61969 -3.35433,-7.52852 -7.67567,-7.69068 -4.003258,-0.1502 -8.311088,0.94415 -8.820558,7.7486 -0.32507,4.34208 3.98236,7.42027 7.574838,7.71848 5.00379,0.41547 8.75235,-2.91005 8.92139,-7.7764 z m -9.07603,5.32237 c -2.906908,-0.1552 -5.802568,-3.06201 -5.565338,-6.034 0.20903,-2.61902 1.83987,-5.603 5.687008,-5.44742 3.44936,0.13953 7.19068,1.38103 6.93059,6.13364 -0.21844,3.9916 -3.43224,5.54077 -7.05226,5.34778 z"
           sodipodi:nodetypes="ssssssssss" /><path
           style="fill:#ffffff;fill-opacity:1;stroke-width:2.117;stroke-linejoin:round;stroke-miterlimit:3.1;paint-order:markers stroke fill"
           d="m 103.52419,16.954345 c -0.65481,0.18708 -1.73057,2.08136 -2.0112,2.15152 -0.28063,0.0702 -1.543478,-2.10475 -1.987818,-2.26845 -0.44433,-0.16371 -1.8475,0 -1.47332,0.58465 0.37418,0.58465 0.8419,1.18231 1.40155,1.61939 0.558228,0.43597 1.335548,1.12916 1.170088,1.30755 -0.30402,0.32775 -1.963838,2.26432 -1.831548,2.67773 0.1323,0.41342 0.36381,0.92605 0.74414,0.46303 0.38034,-0.46303 1.670188,-1.80248 1.901698,-1.98438 0.23151,-0.1819 0.44648,-0.3638 0.62838,-0.0496 0.1819,0.31419 1.4056,1.91823 1.81901,1.78594 0.41341,-0.13229 0.51263,-0.44649 -0.16536,-1.43867 -0.678,-0.99219 -1.4056,-1.52136 -0.99219,-1.81901 0.41341,-0.29766 2.06706,-2.01745 1.86862,-2.49701 -0.19844,-0.47956 -1.07205,-0.53268 -1.07205,-0.53268 z"
           id="path200"
           sodipodi:nodetypes="sssssssssssssscs" /></g></g></g></svg>
