<?xml version="1.0" encoding="UTF-8" standalone="no"?>
<!-- Created with Inkscape (http://www.inkscape.org/) -->

<svg
   width="25.753595mm"
   height="14.827713mm"
   viewBox="0 0 25.753595 14.827713"
   version="1.1"
   id="svg1"
   xml:space="preserve"
   inkscape:version="1.3 (0e150ed6c4, 2023-07-21)"
   sodipodi:docname="main.svg"
   xmlns:inkscape="http://www.inkscape.org/namespaces/inkscape"
   xmlns:sodipodi="http://sodipodi.sourceforge.net/DTD/sodipodi-0.dtd"
   xmlns="http://www.w3.org/2000/svg"
   xmlns:svg="http://www.w3.org/2000/svg"><sodipodi:namedview
     id="namedview1"
     pagecolor="#ffffff"
     bordercolor="#000000"
     borderopacity="0.25"
     inkscape:showpageshadow="2"
     inkscape:pageopacity="0.0"
     inkscape:pagecheckerboard="0"
     inkscape:deskcolor="#d1d1d1"
     inkscape:document-units="mm"
     showguides="true"
     inkscape:zoom="1.0158963"
     inkscape:cx="249.04117"
     inkscape:cy="178.65997"
     inkscape:window-width="1920"
     inkscape:window-height="974"
     inkscape:window-x="-11"
     inkscape:window-y="-11"
     inkscape:window-maximized="1"
     inkscape:current-layer="g18"><sodipodi:guide
       position="-33.117986,212.38266"
       orientation="1,0"
       id="guide2"
       inkscape:locked="false" /><sodipodi:guide
       position="-28.67203,213.2618"
       orientation="0,-1"
       id="guide3"
       inkscape:locked="false" /><sodipodi:guide
       position="-26.009478,204.92249"
       orientation="1,0"
       id="guide4"
       inkscape:locked="false" /><sodipodi:guide
       position="-30.76596,202.3465"
       orientation="0,-1"
       id="guide5"
       inkscape:locked="false" /></sodipodi:namedview><defs
     id="defs1" /><g
     inkscape:label="Art"
     inkscape:groupmode="layer"
     id="layer1"
     transform="translate(-86.092699,-68.680265)"><g
       inkscape:groupmode="layer"
       id="layer2"
       inkscape:label="Other Buttons"
       style="display:inline"><g
         inkscape:groupmode="layer"
         id="g18"
         inkscape:label="Button RB Pressed"
         style="display:inline"
         transform="translate(0.26044326,17.449698)"
         inkscape:export-filename="button_rb_pressed.svg"
         inkscape:export-xdpi="96"
         inkscape:export-ydpi="96"><path
           style="display:inline;fill:#ffffff;fill-opacity:1;stroke-width:2.117;stroke-linejoin:round;stroke-miterlimit:3.1;paint-order:markers stroke fill"
           d="m 87.906341,53.903809 c 0,0 -0.78268,10.266987 -0.59853,10.497188 0.18417,0.230201 23.066179,0.598524 23.066179,0.598524 0,0 0.92081,-3.959465 -0.4604,-7.274369 -1.3812,-3.314901 -5.1565,-5.893157 -5.1565,-5.893157 L 92.234131,54.13401 Z"
           id="path10-6"
           inkscape:export-filename="button_rb.svg"
           inkscape:export-xdpi="96"
           inkscape:export-ydpi="96" /><path
           style="display:inline;opacity:1;fill:#000000;fill-opacity:0;stroke-width:2.117;stroke-linejoin:round;stroke-miterlimit:3.1;paint-order:markers stroke fill"
           d="m 87.799931,53.903742 c 0,0 -0.782685,10.266987 -0.598525,10.497188 0.184161,0.230201 23.066184,0.598524 23.066184,0.598524 0,0 0.92081,-3.959465 -0.4604,-7.274369 -1.38121,-3.314901 -5.15651,-5.893157 -5.15651,-5.893157 l -12.522962,2.302015 z"
           id="path15" /><path
           style="fill:#6a6b69;fill-opacity:1;stroke-width:2.117;stroke-linejoin:round;stroke-miterlimit:3.1;paint-order:markers stroke fill"
           d="m 99.862862,62.10938 c 0.0444,-0.12105 0.370018,-0.18816 0.469188,-1.43167 0.0992,-1.24351 -0.384178,-3.70947 0.004,-3.78521 0.38802,-0.0757 1.99479,-0.0373 2.18558,0.8087 0.23463,1.04045 0.18856,1.06915 -0.1435,1.03692 -0.33208,-0.0323 -2.399028,-0.22161 -2.399028,-0.22161 0,0 -0.27153,1.0229 -0.0307,0.92597 0.240848,-0.0969 2.693328,-0.14808 3.015588,0.2547 0.32228,0.40278 0.72641,0.88469 0.16907,1.30905 -0.55733,0.42436 -1.25299,0.67963 -1.94698,0.69995 -0.69397,0.0204 -1.223798,-0.22169 -1.223798,-0.22169 l -0.20629,0.34641 c 0,0 1.055628,1.58479 2.480048,1.34839 1.42442,-0.23641 2.4358,-1.08766 2.08376,-2.57213 -0.38043,-1.60422 -1.05092,-1.44316 -0.86249,-1.68207 0.20801,-0.26374 0.68953,-0.80242 0.20762,-1.84566 -0.48188,-1.04324 -1.8018,-1.79003 -3.814048,-1.58904 -1.070788,0.10696 -1.432008,0.56995 -1.096448,0.75085 0.46067,0.24833 0.28456,0.41291 0.23693,1.62238 -0.0476,1.20948 -0.11706,3.35212 0.18483,4.03994 0.11501,0.26202 0.408198,0.61543 0.686748,0.20581 z"
           id="path16"
           sodipodi:nodetypes="csssscssssccsssssssscc" /><path
           id="path17"
           style="display:inline;fill:#6a6b69;fill-opacity:1;stroke-width:2.117;stroke-linejoin:round;stroke-miterlimit:3.1;paint-order:markers stroke fill"
           d="m 94.877314,55.463493 c -0.597365,0.01697 -1.081172,0.221431 -1.262455,0.448035 -0.322284,0.402853 0.08061,0.840352 0.207222,0.874882 0,0 -0.379627,5.202728 -0.56379,5.50199 -0.184159,0.299261 0.759348,1.012718 1.288811,0.897619 0.24617,-0.05352 0.347006,-0.989823 0.390157,-2.083077 0.641255,0.588974 1.559154,1.275381 1.95802,1.530656 0.575502,0.368321 2.025551,0.22989 1.196826,-0.690914 -0.459129,-0.510144 -1.222829,-1.21117 -1.833997,-1.745113 0.341049,-0.06066 0.828901,-0.305768 1.396814,-1.062984 1.104967,-1.473289 -0.09205,-2.624723 -1.266072,-3.292306 -0.513637,-0.292067 -1.046919,-0.391987 -1.511536,-0.378788 z m 0.190686,1.60197 c 0.08345,-0.01439 0.273544,0.135012 0.722437,0.250114 0.897784,0.230199 1.495955,0.713727 0.828373,1.381311 -0.419878,0.419877 -1.15714,0.420875 -1.647445,0.363802 0.0017,-0.536874 0.0021,-0.994689 0.01344,-1.261422 0.02302,-0.540973 -2.49e-4,-0.719418 0.0832,-0.733805 z" /><path
           id="path18"
           style="display:inline;fill:#6a6b69;fill-opacity:1;stroke-width:2.11699;stroke-linejoin:round;stroke-miterlimit:3.1;paint-order:markers stroke fill"
           d="m 103.20972,51.233037 c 7.3702,0.153406 9.05497,7.424724 8.15558,13.321667 0,0 -1.4e-4,0.830456 -0.77825,1.30483 -0.7781,0.474379 -24.018818,-0.01722 -24.621233,-0.267167 -0.500208,-0.207538 0.569761,-11.533065 0.514181,-12.140861 -0.05558,-0.607795 0.986348,-0.459657 2.931604,-0.341064 1.945257,0.118593 7.272289,-0.800232 10.28206,-1.482597 1.293978,-0.293366 2.463178,-0.416723 3.516058,-0.394808 z m -0.6196,1.743046 c -0.85624,-0.01438 -1.81422,0.0828 -2.886118,0.310575 -2.493236,0.529812 -6.905905,1.427399 -8.517315,1.335319 -1.611408,-0.09208 -2.981261,-1.06e-4 -2.935221,0.471806 0.04604,0.471914 -0.333745,8.874484 0.08061,9.035624 0.499028,0.194064 19.998914,-0.03748 20.740854,-0.01189 0.33379,0.01151 0.52978,-0.180435 0.5271,-0.826306 -0.0193,-4.638768 -1.01623,-10.214478 -7.00991,-10.315133 z" /></g></g></g></svg>
