<?xml version="1.0" encoding="UTF-8" standalone="no"?>
<!-- Created with Inkscape (http://www.inkscape.org/) -->

<svg
   width="25.753592mm"
   height="14.827717mm"
   viewBox="0 0 25.753592 14.827717"
   version="1.1"
   id="svg1"
   xml:space="preserve"
   inkscape:version="1.3 (0e150ed6c4, 2023-07-21)"
   sodipodi:docname="main.svg"
   xmlns:inkscape="http://www.inkscape.org/namespaces/inkscape"
   xmlns:sodipodi="http://sodipodi.sourceforge.net/DTD/sodipodi-0.dtd"
   xmlns="http://www.w3.org/2000/svg"
   xmlns:svg="http://www.w3.org/2000/svg"><sodipodi:namedview
     id="namedview1"
     pagecolor="#ffffff"
     bordercolor="#000000"
     borderopacity="0.25"
     inkscape:showpageshadow="2"
     inkscape:pageopacity="0.0"
     inkscape:pagecheckerboard="0"
     inkscape:deskcolor="#d1d1d1"
     inkscape:document-units="mm"
     showguides="true"
     inkscape:zoom="1.0158963"
     inkscape:cx="249.04117"
     inkscape:cy="178.65997"
     inkscape:window-width="1920"
     inkscape:window-height="974"
     inkscape:window-x="-11"
     inkscape:window-y="-11"
     inkscape:window-maximized="1"
     inkscape:current-layer="g18"><sodipodi:guide
       position="-2.4677246,194.97359"
       orientation="1,0"
       id="guide2"
       inkscape:locked="false" /><sodipodi:guide
       position="1.9782314,195.85273"
       orientation="0,-1"
       id="guide3"
       inkscape:locked="false" /><sodipodi:guide
       position="4.6407834,187.51342"
       orientation="1,0"
       id="guide4"
       inkscape:locked="false" /><sodipodi:guide
       position="-0.11569864,184.93743"
       orientation="0,-1"
       id="guide5"
       inkscape:locked="false" /></sodipodi:namedview><defs
     id="defs1" /><g
     inkscape:label="Art"
     inkscape:groupmode="layer"
     id="layer1"
     transform="translate(-55.442437,-51.271204)"><g
       inkscape:groupmode="layer"
       id="layer2"
       inkscape:label="Other Buttons"
       style="display:inline"><g
         inkscape:groupmode="layer"
         id="layer10"
         inkscape:label="Button LB Base"
         inkscape:export-filename="button_lb_base.svg"
         inkscape:export-xdpi="96"
         inkscape:export-ydpi="96"><path
           style="display:inline;opacity:1;fill:#eb111d;fill-opacity:1;stroke-width:2.117;stroke-linejoin:round;stroke-miterlimit:3.1;paint-order:markers stroke fill"
           d="m 80.021188,54.562861 c 0.195334,0.781331 -0.195331,10.287508 -0.195331,10.287508 l -23.114338,-0.13022 c 0,0 -1.302216,-10.482842 3.711315,-11.589726 5.013534,-1.106884 6.836635,-0.13022 9.961954,0.390665 3.125319,0.520888 9.6364,1.041773 9.6364,1.041773 z"
           id="path9" /><path
           style="fill:#ffffff;fill-opacity:1;stroke-width:2.117;stroke-linejoin:round;stroke-miterlimit:3.1;paint-order:markers stroke fill"
           d="m 69.787969,62.134585 c 0.0444,-0.12105 0.37002,-0.18816 0.46919,-1.43167 0.0992,-1.24351 -0.38418,-3.70947 0.004,-3.78521 0.38802,-0.0757 1.99479,-0.0373 2.18558,0.8087 0.23463,1.04045 0.18856,1.06915 -0.1435,1.03692 -0.33208,-0.0323 -2.39903,-0.22161 -2.39903,-0.22161 0,0 -0.27153,1.0229 -0.0307,0.92597 0.24085,-0.0969 2.69333,-0.14808 3.01559,0.2547 0.32228,0.40278 0.72641,0.88469 0.16907,1.30905 -0.55733,0.42436 -1.25299,0.67963 -1.94698,0.69995 -0.69397,0.0204 -1.2238,-0.22169 -1.2238,-0.22169 l -0.20629,0.34641 c 0,0 1.05563,1.58479 2.48005,1.34839 1.42442,-0.23641 2.4358,-1.08766 2.08376,-2.57213 -0.38043,-1.60422 -1.05092,-1.44316 -0.86249,-1.68207 0.20801,-0.26374 0.68953,-0.80242 0.20762,-1.84566 -0.48188,-1.04324 -1.8018,-1.79003 -3.81405,-1.58904 -1.07079,0.10696 -1.43201,0.56995 -1.09645,0.75085 0.46067,0.24833 0.28456,0.41291 0.23693,1.62238 -0.0476,1.20948 -0.11706,3.35212 0.18483,4.03994 0.11501,0.26202 0.4082,0.61543 0.68675,0.20581 z"
           id="path235-5"
           sodipodi:nodetypes="csssscssssccsssssssscc" /><path
           id="path7-5"
           style="display:inline;fill:#2f0406;fill-opacity:1;stroke-width:2.11699;stroke-linejoin:round;stroke-miterlimit:3.1;paint-order:markers stroke fill"
           d="m 63.818563,51.273674 c -7.370192,0.153406 -9.054964,7.424724 -8.155575,13.321667 0,0 1.43e-4,0.830456 0.778247,1.30483 0.778104,0.474379 24.018822,-0.01722 24.621237,-0.267167 0.500208,-0.207538 -0.569761,-11.533065 -0.514181,-12.140861 0.05558,-0.607795 -0.986348,-0.459657 -2.931604,-0.341064 -1.945257,0.118593 -7.272289,-0.800232 -10.28206,-1.482597 -1.293975,-0.293366 -2.46318,-0.416723 -3.516064,-0.394808 z m 0.6196,1.743046 c 0.85624,-0.01438 1.814228,0.0828 2.886129,0.310575 2.493231,0.529812 6.9059,1.427399 8.51731,1.335319 1.611408,-0.09208 2.981261,-1.06e-4 2.935221,0.471806 -0.04604,0.471914 0.333745,8.874484 -0.08061,9.035624 -0.499028,0.194064 -19.998916,-0.03748 -20.740853,-0.01189 -0.333793,0.01151 -0.529783,-0.180435 -0.5271,-0.826306 0.01927,-4.638768 1.016228,-10.214478 7.009908,-10.315133 z" /><path
           style="display:inline;fill:#ffffff;fill-opacity:1;stroke-width:2.117;stroke-linejoin:round;stroke-miterlimit:3.1;paint-order:markers stroke fill"
           d="m 63.51108,56.82055 c 0,0.212227 -0.300223,4.416204 -0.185123,5.060764 0.1151,0.64456 -0.023,1.01289 0.52946,1.01289 0.55249,0 4.30477,0.023 4.55799,-0.2302 0.25322,-0.25323 0.20718,-1.38121 -0.43738,-1.19705 -0.64456,0.18416 -0.94383,0.0921 -1.68047,0.046 -0.73665,-0.046 -1.47329,-0.16114 -1.49631,-0.43738 -0.023,-0.27625 0.346263,-2.942918 0.300223,-4.738486 -0.0184,-0.716728 -1.28913,-0.966846 -1.47329,-0.368322 -0.18416,0.598522 -0.1151,0.851744 -0.1151,0.851744 z"
           id="path8"
           sodipodi:nodetypes="ssssscssscs" /></g></g></g></svg>
