<?xml version="1.0" encoding="UTF-8" standalone="no"?>
<!-- Created with Inkscape (http://www.inkscape.org/) -->

<svg
   width="16.516876mm"
   height="15.514818mm"
   viewBox="0 0 16.516876 15.514818"
   version="1.1"
   id="svg1"
   xml:space="preserve"
   inkscape:version="1.3 (0e150ed6c4, 2023-07-21)"
   sodipodi:docname="main.svg"
   xmlns:inkscape="http://www.inkscape.org/namespaces/inkscape"
   xmlns:sodipodi="http://sodipodi.sourceforge.net/DTD/sodipodi-0.dtd"
   xmlns="http://www.w3.org/2000/svg"
   xmlns:svg="http://www.w3.org/2000/svg"><sodipodi:namedview
     id="namedview1"
     pagecolor="#ffffff"
     bordercolor="#000000"
     borderopacity="0.25"
     inkscape:showpageshadow="2"
     inkscape:pageopacity="0.0"
     inkscape:pagecheckerboard="0"
     inkscape:deskcolor="#d1d1d1"
     inkscape:document-units="mm"
     showguides="true"
     inkscape:zoom="1.0158963"
     inkscape:cx="249.04117"
     inkscape:cy="178.65997"
     inkscape:window-width="1920"
     inkscape:window-height="974"
     inkscape:window-x="-11"
     inkscape:window-y="-11"
     inkscape:window-maximized="1"
     inkscape:current-layer="g18"><sodipodi:guide
       position="-21.237066,174.12709"
       orientation="1,0"
       id="guide2"
       inkscape:locked="false" /><sodipodi:guide
       position="-16.79111,175.00623"
       orientation="0,-1"
       id="guide3"
       inkscape:locked="false" /><sodipodi:guide
       position="-14.128558,166.66692"
       orientation="1,0"
       id="guide4"
       inkscape:locked="false" /><sodipodi:guide
       position="-18.88504,164.09093"
       orientation="0,-1"
       id="guide5"
       inkscape:locked="false" /></sodipodi:namedview><defs
     id="defs1" /><g
     inkscape:label="Art"
     inkscape:groupmode="layer"
     id="layer1"
     transform="translate(-74.211778,-30.424695)"><g
       inkscape:groupmode="layer"
       id="layer5"
       inkscape:label="ABXY Button"><g
         inkscape:groupmode="layer"
         id="g235"
         inkscape:label="Button B Pressed"
         transform="translate(0.1984375,17.660937)"
         inkscape:export-filename="button_b_pressed.svg"
         inkscape:export-xdpi="96"
         inkscape:export-ydpi="96"><path
           style="display:inline;fill:#ffffff;fill-opacity:1;stroke-width:2.117;stroke-linejoin:round;stroke-miterlimit:3.1;paint-order:markers stroke fill"
           d="m 83.546962,13.552845 c 0,0 5.68854,2.64583 5.82084,5.65546 0.13229,3.00964 -2.14974,7.73907 -4.99401,8.26823 -2.84428,0.52917 -10.71562,-3.5388 -9.59114,-6.54843 1.12448,-3.00964 1.52135,-5.72162 3.43957,-6.58151 1.91823,-0.8599 5.32474,-0.79375 5.32474,-0.79375 z"
           id="path233" /><path
           id="path234"
           style="fill:#6a6b69;fill-opacity:1;stroke-width:2.117;stroke-linejoin:round;stroke-miterlimit:3.1;paint-order:markers stroke fill"
           d="m 90.526922,20.467185 c 0.12573,-3.61969 -3.35433,-7.52852 -7.67567,-7.69068 -4.00326,-0.1502 -8.31109,0.94415 -8.82056,7.7486 -0.32507,4.34208 3.98236,7.42027 7.57484,7.71848 5.00379,0.41547 8.75235,-2.91005 8.92139,-7.7764 z m -9.07603,5.32237 c -2.90691,-0.1552 -5.80257,-3.06201 -5.56534,-6.034 0.20903,-2.61902 1.83987,-5.603 5.68701,-5.44742 3.44936,0.13953 7.19068,1.38103 6.93059,6.13364 -0.21844,3.9916 -3.43224,5.54077 -7.05226,5.34778 z"
           sodipodi:nodetypes="ssssssssss" /><path
           style="fill:#6a6b69;fill-opacity:1;stroke-width:2.117;stroke-linejoin:round;stroke-miterlimit:3.1;paint-order:markers stroke fill"
           d="m 81.114422,22.614155 c 0.0444,-0.12105 0.37002,-0.18816 0.46919,-1.43167 0.0992,-1.24351 -0.38418,-3.70947 0.004,-3.78521 0.38802,-0.0757 1.99479,-0.0373 2.18558,0.8087 0.23463,1.04045 0.18856,1.06915 -0.1435,1.03692 -0.33208,-0.0323 -2.39903,-0.22161 -2.39903,-0.22161 0,0 -0.27153,1.0229 -0.0307,0.92597 0.24085,-0.0969 2.69333,-0.14808 3.01559,0.2547 0.32228,0.40278 0.72641,0.88469 0.16907,1.30905 -0.55733,0.42436 -1.25299,0.67963 -1.94698,0.69995 -0.69397,0.0204 -1.2238,-0.22169 -1.2238,-0.22169 l -0.20629,0.34641 c 0,0 1.05563,1.58479 2.48005,1.34839 1.42442,-0.23641 2.4358,-1.08766 2.08376,-2.57213 -0.38043,-1.60422 -1.05092,-1.44316 -0.86249,-1.68207 0.20801,-0.26374 0.68953,-0.80242 0.20762,-1.84566 -0.48188,-1.04324 -1.8018,-1.79003 -3.81405,-1.58904 -1.07079,0.10696 -1.43201,0.56995 -1.09645,0.75085 0.46067,0.24833 0.28456,0.41291 0.23693,1.62238 -0.0476,1.20948 -0.11706,3.35212 0.18483,4.03994 0.11501,0.26202 0.4082,0.61543 0.68675,0.20581 z"
           id="path235"
           sodipodi:nodetypes="csssscssssccsssssssscc" /></g></g></g></svg>
