<?xml version="1.0" encoding="UTF-8" standalone="no"?>
<!-- Created with Inkscape (http://www.inkscape.org/) -->

<svg
   width="31.832342mm"
   height="32.206177mm"
   viewBox="0 0 31.832342 32.206177"
   version="1.1"
   id="svg1"
   xml:space="preserve"
   inkscape:version="1.3 (0e150ed6c4, 2023-07-21)"
   sodipodi:docname="main.svg"
   xmlns:inkscape="http://www.inkscape.org/namespaces/inkscape"
   xmlns:sodipodi="http://sodipodi.sourceforge.net/DTD/sodipodi-0.dtd"
   xmlns="http://www.w3.org/2000/svg"
   xmlns:svg="http://www.w3.org/2000/svg"><sodipodi:namedview
     id="namedview1"
     pagecolor="#ffffff"
     bordercolor="#000000"
     borderopacity="0.25"
     inkscape:showpageshadow="2"
     inkscape:pageopacity="0.0"
     inkscape:pagecheckerboard="0"
     inkscape:deskcolor="#d1d1d1"
     inkscape:document-units="mm"
     showguides="true"
     inkscape:zoom="1.0158963"
     inkscape:cx="249.04117"
     inkscape:cy="178.65997"
     inkscape:window-width="1920"
     inkscape:window-height="974"
     inkscape:window-x="-11"
     inkscape:window-y="-11"
     inkscape:window-maximized="1"
     inkscape:current-layer="g18"><sodipodi:guide
       position="40.857382,225.91599"
       orientation="1,0"
       id="guide2"
       inkscape:locked="false" /><sodipodi:guide
       position="45.303338,226.79513"
       orientation="0,-1"
       id="guide3"
       inkscape:locked="false" /><sodipodi:guide
       position="47.96589,218.45582"
       orientation="1,0"
       id="guide4"
       inkscape:locked="false" /><sodipodi:guide
       position="43.209408,215.87983"
       orientation="0,-1"
       id="guide5"
       inkscape:locked="false" /></sodipodi:namedview><defs
     id="defs1"><inkscape:path-effect
       effect="fillet_chamfer"
       id="path-effect143"
       is_visible="true"
       lpeversion="1"
       nodesatellites_param="F,0,0,1,0,0.64933005,0,1 @ F,0,0,1,0,0.79726192,0,1 @ F,0,0,1,0,0.75445911,0,1"
       radius="0"
       unit="px"
       method="auto"
       mode="F"
       chamfer_steps="1"
       flexible="false"
       use_knot_distance="true"
       apply_no_radius="true"
       apply_with_radius="true"
       only_selected="false"
       hide_knots="false" /><inkscape:path-effect
       effect="fillet_chamfer"
       id="path-effect141"
       is_visible="true"
       lpeversion="1"
       nodesatellites_param="F,0,0,1,0,0.64933005,0,1 @ F,0,0,1,0,0.79726192,0,1 @ F,0,0,1,0,0.75445911,0,1"
       radius="0"
       unit="px"
       method="auto"
       mode="F"
       chamfer_steps="1"
       flexible="false"
       use_knot_distance="true"
       apply_no_radius="true"
       apply_with_radius="true"
       only_selected="false"
       hide_knots="false" /><inkscape:path-effect
       effect="fillet_chamfer"
       id="path-effect139"
       is_visible="true"
       lpeversion="1"
       nodesatellites_param="F,0,0,1,0,0.64933005,0,1 @ F,0,0,1,0,0.79726192,0,1 @ F,0,0,1,0,0.75445911,0,1"
       radius="0"
       unit="px"
       method="auto"
       mode="F"
       chamfer_steps="1"
       flexible="false"
       use_knot_distance="true"
       apply_no_radius="true"
       apply_with_radius="true"
       only_selected="false"
       hide_knots="false" /><inkscape:path-effect
       effect="fillet_chamfer"
       id="path-effect137"
       is_visible="true"
       lpeversion="1"
       nodesatellites_param="F,0,0,1,0,0.64933005,0,1 @ F,0,0,1,0,0.79726192,0,1 @ F,0,0,1,0,0.75445911,0,1"
       radius="0"
       unit="px"
       method="auto"
       mode="F"
       chamfer_steps="1"
       flexible="false"
       use_knot_distance="true"
       apply_no_radius="true"
       apply_with_radius="true"
       only_selected="false"
       hide_knots="false" /><inkscape:path-effect
       effect="fillet_chamfer"
       id="path-effect135"
       is_visible="true"
       lpeversion="1"
       nodesatellites_param="F,0,0,1,0,0,0,1 @ F,0,0,1,0,0,0,1 @ F,0,0,1,0,0,0,1 @ F,0,0,1,0,0,0,1 @ F,0,0,1,0,0.38778209,0,1 @ F,0,0,1,0,0.60966096,0,1 @ F,0,0,1,0,0,0,1 @ F,0,0,1,0,0,0,1 @ F,0,0,1,0,0.36532953,0,1 @ F,0,0,1,0,0.60966096,0,1"
       radius="0"
       unit="px"
       method="auto"
       mode="F"
       chamfer_steps="1"
       flexible="false"
       use_knot_distance="true"
       apply_no_radius="true"
       apply_with_radius="true"
       only_selected="false"
       hide_knots="false" /><inkscape:path-effect
       effect="fillet_chamfer"
       id="path-effect133"
       is_visible="true"
       lpeversion="1"
       nodesatellites_param="F,0,0,1,0,0,0,1 @ F,0,0,1,0,0,0,1 @ F,0,0,1,0,0,0,1 @ F,0,0,1,0,0,0,1 @ F,0,0,1,0,0.38778209,0,1 @ F,0,0,1,0,0.60966096,0,1 @ F,0,0,1,0,0,0,1 @ F,0,0,1,0,0,0,1 @ F,0,0,1,0,0.36532953,0,1 @ F,0,0,1,0,0.60966096,0,1"
       radius="0"
       unit="px"
       method="auto"
       mode="F"
       chamfer_steps="1"
       flexible="false"
       use_knot_distance="true"
       apply_no_radius="true"
       apply_with_radius="true"
       only_selected="false"
       hide_knots="false" /><inkscape:path-effect
       effect="fillet_chamfer"
       id="path-effect131"
       is_visible="true"
       lpeversion="1"
       nodesatellites_param="F,0,0,1,0,0,0,1 @ F,0,0,1,0,0,0,1 @ F,0,0,1,0,0,0,1 @ F,0,0,1,0,0,0,1 @ F,0,0,1,0,0.38778209,0,1 @ F,0,0,1,0,0.60966096,0,1 @ F,0,0,1,0,0,0,1 @ F,0,0,1,0,0,0,1 @ F,0,0,1,0,0.36532953,0,1 @ F,0,0,1,0,0.60966096,0,1"
       radius="0"
       unit="px"
       method="auto"
       mode="F"
       chamfer_steps="1"
       flexible="false"
       use_knot_distance="true"
       apply_no_radius="true"
       apply_with_radius="true"
       only_selected="false"
       hide_knots="false" /><inkscape:path-effect
       effect="fillet_chamfer"
       id="path-effect129"
       is_visible="true"
       lpeversion="1"
       nodesatellites_param="F,0,0,1,0,0,0,1 @ F,0,0,1,0,0,0,1 @ F,0,0,1,0,0,0,1 @ F,0,0,1,0,0,0,1 @ F,0,0,1,0,0.38778209,0,1 @ F,0,0,1,0,0.60966096,0,1 @ F,0,0,1,0,0,0,1 @ F,0,0,1,0,0,0,1 @ F,0,0,1,0,0.36532953,0,1 @ F,0,0,1,0,0.60966096,0,1"
       radius="0"
       unit="px"
       method="auto"
       mode="F"
       chamfer_steps="1"
       flexible="false"
       use_knot_distance="true"
       apply_no_radius="true"
       apply_with_radius="true"
       only_selected="false"
       hide_knots="false" /></defs><g
     inkscape:label="Art"
     inkscape:groupmode="layer"
     id="layer1"
     transform="translate(-12.117331,-82.213598)"><g
       inkscape:groupmode="layer"
       id="layer4"
       inkscape:label="Dpad"><g
         inkscape:groupmode="layer"
         id="g128"
         inkscape:label="Dpad Left"
         style="display:inline"
         transform="translate(-0.06030839,34.317865)"
         inkscape:export-filename="dpad_left.svg"
         inkscape:export-xdpi="96"
         inkscape:export-ydpi="96"><rect
           style="display:inline;opacity:1;fill:#63ab43;fill-opacity:0;stroke-width:2.117;stroke-linejoin:round;stroke-miterlimit:3.1;paint-order:markers stroke fill"
           id="rect116"
           width="31.832344"
           height="32.206169"
           x="12.177639"
           y="47.895733" /><path
           style="opacity:1;fill:#ffffff;fill-opacity:1;stroke-width:2.117;stroke-linejoin:round;stroke-miterlimit:3.1;paint-order:markers stroke fill"
           d="m 36.427128,50.789495 c 0,0 -0.568362,3.33915 -1.207772,4.68901 -0.639411,1.34987 -2.308982,3.94303 -2.308982,3.94303 0,0 7.14008,-4.15617 8.489945,-2.69973 1.349867,1.45643 3.303619,6.28753 1.491958,11.11863 -1.811662,4.8311 -2.522119,4.93767 -2.735254,4.86662 -0.213138,-0.071 -7.637399,-4.0496 -7.637399,-4.0496 l 3.445708,8.59652 c 0,0 -3.871983,2.27346 -7.104557,2.09584 -3.232573,-0.17761 -9.058309,-1.34986 -9.271447,-1.77614 -0.213135,-0.42627 0.568365,-4.29825 1.705094,-5.79021 1.13673,-1.49196 2.308982,-3.12601 2.131367,-3.12601 -0.177612,0 -8.028149,3.44571 -8.028149,3.44571 0,0 -2.024798,-3.19705 -1.77614,-6.64276 0.248661,-3.44571 -0.426272,-7.92158 0.817026,-8.77412 1.243295,-0.85255 2.841821,-0.81703 4.724529,0 1.882709,0.81702 4.866622,2.6642 4.369303,2.0248 -0.497319,-0.63941 -3.94303,-7.95711 -3.019436,-8.24129 0.923592,-0.28418 9.129356,-2.0248 10.83445,-1.66957 1.705094,0.35522 5.079756,1.98927 5.079756,1.98927 z"
           id="path116" /><path
           id="path117"
           style="opacity:1;fill:#000000;fill-opacity:1;stroke-width:2.117;stroke-linejoin:round;stroke-miterlimit:3.1;paint-order:markers stroke fill"
           d="m 43.720846,146.97966 c -0.843532,-0.004 -1.745984,0.944 -1.982825,1.73736 -1.221232,4.09082 -1.288884,11.60107 0.423747,14.73399 0.721494,1.31984 1.091921,1.32806 2.363163,1.21077 1.021466,-0.0942 4.716513,-1.8685 8.278823,-4.62637 0.169297,-0.13107 0.130237,-0.22611 -0.08145,-0.25577 -0.274564,-0.0385 -0.724213,0.0246 -1.016563,0.19164 -1.644056,0.93952 -6.622513,3.68816 -7.597835,3.09732 -1.945167,-1.17838 -2.438598,-13.85746 0.245463,-14.3707 1.975247,-0.37771 6.859248,2.64144 8.168552,3.3682 0.174046,0.0966 0.29806,-0.009 0.262293,-0.20806 l -0.0013,-0.007 c -0.05969,-0.33138 -0.324211,-0.76673 -0.593374,-0.96902 -2.561388,-1.925 -5.286213,-3.59023 -8.468674,-3.90205 z"
           inkscape:path-effect="#path-effect129"
           inkscape:original-d="m 43.720846,146.97966 c -0.843532,-0.004 -1.745984,0.944 -1.982825,1.73736 -1.221232,4.09082 -1.288884,11.60107 0.423747,14.73399 0.721494,1.31984 1.091921,1.32806 2.363163,1.21077 1.050677,-0.0969 4.930038,-1.97136 8.584051,-4.86537 -0.408712,0.0313 -0.875597,-0.13059 -0.875597,-0.13059 0,0 -6.953394,4.11282 -8.125483,3.40278 -1.945167,-1.17838 -2.438598,-13.85746 0.245463,-14.3707 2.281675,-0.4363 8.444601,3.65994 8.495606,3.51968 l -0.17415,-0.96686 c -2.703006,-2.07741 -5.569737,-3.93947 -8.953975,-4.27106 z"
           sodipodi:nodetypes="csssccssccc"
           transform="translate(-28.437478,-92.047625)" /><path
           id="path118"
           style="opacity:1;fill:#000000;fill-opacity:1;stroke-width:2.117;stroke-linejoin:round;stroke-miterlimit:3.1;paint-order:markers stroke fill"
           d="m 43.720846,146.97966 c -0.843532,-0.004 -1.745984,0.944 -1.982825,1.73736 -1.221232,4.09082 -1.288884,11.60107 0.423747,14.73399 0.721494,1.31984 1.091921,1.32806 2.363163,1.21077 1.021466,-0.0942 4.716513,-1.8685 8.278823,-4.62637 0.169297,-0.13107 0.130237,-0.22611 -0.08145,-0.25577 -0.274564,-0.0385 -0.724213,0.0246 -1.016563,0.19164 -1.644056,0.93952 -6.622513,3.68816 -7.597835,3.09732 -1.945167,-1.17838 -2.438598,-13.85746 0.245463,-14.3707 1.975247,-0.37771 6.859248,2.64144 8.168552,3.3682 0.174046,0.0966 0.29806,-0.009 0.262293,-0.20806 l -0.0013,-0.007 c -0.05969,-0.33138 -0.324211,-0.76673 -0.593374,-0.96902 -2.561388,-1.925 -5.286213,-3.59023 -8.468674,-3.90205 z"
           inkscape:path-effect="#path-effect131"
           inkscape:original-d="m 43.720846,146.97966 c -0.843532,-0.004 -1.745984,0.944 -1.982825,1.73736 -1.221232,4.09082 -1.288884,11.60107 0.423747,14.73399 0.721494,1.31984 1.091921,1.32806 2.363163,1.21077 1.050677,-0.0969 4.930038,-1.97136 8.584051,-4.86537 -0.408712,0.0313 -0.875597,-0.13059 -0.875597,-0.13059 0,0 -6.953394,4.11282 -8.125483,3.40278 -1.945167,-1.17838 -2.438598,-13.85746 0.245463,-14.3707 2.281675,-0.4363 8.444601,3.65994 8.495606,3.51968 l -0.17415,-0.96686 c -2.703006,-2.07741 -5.569737,-3.93947 -8.953975,-4.27106 z"
           sodipodi:nodetypes="csssccssccc"
           transform="rotate(90.900891,87.702825,95.859378)" /><path
           id="path119"
           style="opacity:1;fill:#000000;fill-opacity:1;stroke-width:2.117;stroke-linejoin:round;stroke-miterlimit:3.1;paint-order:markers stroke fill"
           d="m 43.720846,146.97966 c -0.843532,-0.004 -1.745984,0.944 -1.982825,1.73736 -1.221232,4.09082 -1.288884,11.60107 0.423747,14.73399 0.721494,1.31984 1.091921,1.32806 2.363163,1.21077 1.021466,-0.0942 4.716513,-1.8685 8.278823,-4.62637 0.169297,-0.13107 0.130237,-0.22611 -0.08145,-0.25577 -0.274564,-0.0385 -0.724213,0.0246 -1.016563,0.19164 -1.644056,0.93952 -6.622513,3.68816 -7.597835,3.09732 -1.945167,-1.17838 -2.438598,-13.85746 0.245463,-14.3707 1.975247,-0.37771 6.859248,2.64144 8.168552,3.3682 0.174046,0.0966 0.29806,-0.009 0.262293,-0.20806 l -0.0013,-0.007 c -0.05969,-0.33138 -0.324211,-0.76673 -0.593374,-0.96902 -2.561388,-1.925 -5.286213,-3.59023 -8.468674,-3.90205 z"
           inkscape:path-effect="#path-effect133"
           inkscape:original-d="m 43.720846,146.97966 c -0.843532,-0.004 -1.745984,0.944 -1.982825,1.73736 -1.221232,4.09082 -1.288884,11.60107 0.423747,14.73399 0.721494,1.31984 1.091921,1.32806 2.363163,1.21077 1.050677,-0.0969 4.930038,-1.97136 8.584051,-4.86537 -0.408712,0.0313 -0.875597,-0.13059 -0.875597,-0.13059 0,0 -6.953394,4.11282 -8.125483,3.40278 -1.945167,-1.17838 -2.438598,-13.85746 0.245463,-14.3707 2.281675,-0.4363 8.444601,3.65994 8.495606,3.51968 l -0.17415,-0.96686 c -2.703006,-2.07741 -5.569737,-3.93947 -8.953975,-4.27106 z"
           sodipodi:nodetypes="csssccssccc"
           transform="rotate(-88.79637,-4.4658779,124.59919)" /><path
           id="path120"
           style="opacity:1;fill:#000000;fill-opacity:1;stroke-width:2.117;stroke-linejoin:round;stroke-miterlimit:3.1;paint-order:markers stroke fill"
           d="m 43.720846,146.97966 c -0.843532,-0.004 -1.745984,0.944 -1.982825,1.73736 -1.221232,4.09082 -1.288884,11.60107 0.423747,14.73399 0.721494,1.31984 1.091921,1.32806 2.363163,1.21077 1.021466,-0.0942 4.716513,-1.8685 8.278823,-4.62637 0.169297,-0.13107 0.130237,-0.22611 -0.08145,-0.25577 -0.274564,-0.0385 -0.724213,0.0246 -1.016563,0.19164 -1.644056,0.93952 -6.622513,3.68816 -7.597835,3.09732 -1.945167,-1.17838 -2.438598,-13.85746 0.245463,-14.3707 1.975247,-0.37771 6.859248,2.64144 8.168552,3.3682 0.174046,0.0966 0.29806,-0.009 0.262293,-0.20806 l -0.0013,-0.007 c -0.05969,-0.33138 -0.324211,-0.76673 -0.593374,-0.96902 -2.561388,-1.925 -5.286213,-3.59023 -8.468674,-3.90205 z"
           inkscape:path-effect="#path-effect135"
           inkscape:original-d="m 43.720846,146.97966 c -0.843532,-0.004 -1.745984,0.944 -1.982825,1.73736 -1.221232,4.09082 -1.288884,11.60107 0.423747,14.73399 0.721494,1.31984 1.091921,1.32806 2.363163,1.21077 1.050677,-0.0969 4.930038,-1.97136 8.584051,-4.86537 -0.408712,0.0313 -0.875597,-0.13059 -0.875597,-0.13059 0,0 -6.953394,4.11282 -8.125483,3.40278 -1.945167,-1.17838 -2.438598,-13.85746 0.245463,-14.3707 2.281675,-0.4363 8.444601,3.65994 8.495606,3.51968 l -0.17415,-0.96686 c -2.703006,-2.07741 -5.569737,-3.93947 -8.953975,-4.27106 z"
           sodipodi:nodetypes="csssccssccc"
           transform="rotate(-177.41642,41.371232,110.17908)" /><path
           style="opacity:1;fill:#ec1723;fill-opacity:1;stroke-width:2.117;stroke-linejoin:round;stroke-miterlimit:3.1;paint-order:markers stroke fill"
           d="m 22.031191,76.089585 c 0.567287,1.34686 10.972561,1.61089 11.822039,-0.097 0.349172,-0.702 -1.95884,-5.57901 -4.027865,-8.16199 -0.471353,-0.58844 -3.395697,-0.55015 -3.933273,0.18464 -1.792982,2.45073 -4.139452,7.4129 -3.860901,8.07425 z"
           id="path121"
           sodipodi:nodetypes="ssssss" /><path
           style="opacity:1;fill:#ffffff;fill-opacity:1;stroke-width:2.117;stroke-linejoin:round;stroke-miterlimit:3.1;paint-order:markers stroke fill"
           d="m 57.02458,166.28268 c 0.780113,-0.58211 1.443621,-1.39743 2.068645,-2.28972 0.252571,-0.36057 0.09747,-0.72648 -0.338001,-0.79147 -1.557335,-0.23243 -3.082016,-0.27668 -4.564091,-0.0212 -0.410513,0.0708 -0.551467,0.43495 -0.30677,0.77218 0.582924,0.80336 1.244182,1.57736 2.086892,2.2833 0.274821,0.23022 0.766109,0.26124 1.053325,0.0469 z"
           id="path122"
           sodipodi:nodetypes="cccc"
           transform="translate(-28.540776,-92.411826)"
           inkscape:original-d="m 56.481231,166.63738 c 1.226333,-0.68864 2.164292,-1.95404 3.06016,-3.30361 -2.092655,-0.39025 -4.130119,-0.47863 -6.088739,0 0.795984,1.18128 1.701156,2.32162 3.028579,3.30361 z"
           inkscape:path-effect="#path-effect137" /><path
           style="fill:#ec1723;fill-opacity:1;stroke-width:2.117;stroke-linejoin:round;stroke-miterlimit:3.1;paint-order:markers stroke fill"
           d="m 39.749867,70.489375 c 1.384599,-0.46769 2.405735,-10.82611 0.764247,-11.79771 -0.674706,-0.39937 -5.706855,1.54732 -8.433661,3.42273 -0.621206,0.42725 -0.795995,3.34662 -0.102308,3.93628 2.313641,1.9667 7.091742,4.66833 7.771622,4.43869 z"
           id="path123"
           sodipodi:nodetypes="ssssss" /><path
           style="fill:#ffffff;fill-opacity:1;stroke-width:2.117;stroke-linejoin:round;stroke-miterlimit:3.1;paint-order:markers stroke fill"
           d="m 57.02458,166.28268 c 0.780113,-0.58211 1.443621,-1.39743 2.068645,-2.28972 0.252571,-0.36057 0.09747,-0.72648 -0.338001,-0.79147 -1.557335,-0.23243 -3.082016,-0.27668 -4.564091,-0.0212 -0.410513,0.0708 -0.551467,0.43495 -0.30677,0.77218 0.582924,0.80336 1.244182,1.57736 2.086892,2.2833 0.274821,0.23022 0.766109,0.26124 1.053325,0.0469 z"
           id="path124"
           sodipodi:nodetypes="cccc"
           transform="rotate(-85.823498,-7.5541612,125.31599)"
           inkscape:original-d="m 56.481231,166.63738 c 1.226333,-0.68864 2.164292,-1.95404 3.06016,-3.30361 -2.092655,-0.39025 -4.130119,-0.47863 -6.088739,0 0.795984,1.18128 1.701156,2.32162 3.028579,3.30361 z"
           inkscape:path-effect="#path-effect139" /><path
           style="fill:#ec1723;fill-opacity:1;stroke-width:2.117;stroke-linejoin:round;stroke-miterlimit:3.1;paint-order:markers stroke fill"
           d="m 34.567032,52.209815 c -0.540745,-1.35774 -10.93884,-1.82593 -11.821666,-0.13504 -0.362881,0.69502 1.848968,5.61638 3.866897,8.23947 0.459719,0.59758 3.384254,0.61669 3.936145,-0.10741 1.840728,-2.41508 4.284132,-7.33024 4.01862,-7.99692 z"
           id="path125"
           sodipodi:nodetypes="ssssss" /><path
           style="fill:#ffffff;fill-opacity:1;stroke-width:2.117;stroke-linejoin:round;stroke-miterlimit:3.1;paint-order:markers stroke fill"
           d="m 57.02458,166.28268 c 0.780113,-0.58211 1.443621,-1.39743 2.068645,-2.28972 0.252571,-0.36057 0.09747,-0.72648 -0.338001,-0.79147 -1.557335,-0.23243 -3.082016,-0.27668 -4.564091,-0.0212 -0.410513,0.0708 -0.551467,0.43495 -0.30677,0.77218 0.582924,0.80336 1.244182,1.57736 2.086892,2.2833 0.274821,0.23022 0.766109,0.26124 1.053325,0.0469 z"
           id="path126"
           sodipodi:nodetypes="cccc"
           transform="rotate(-178.87547,41.998877,110.43416)"
           inkscape:original-d="m 56.481231,166.63738 c 1.226333,-0.68864 2.164292,-1.95404 3.06016,-3.30361 -2.092655,-0.39025 -4.130119,-0.47863 -6.088739,0 0.795984,1.18128 1.701156,2.32162 3.028579,3.30361 z"
           inkscape:path-effect="#path-effect141" /><path
           style="fill:#6a6b69;fill-opacity:1;stroke-width:2.117;stroke-linejoin:round;stroke-miterlimit:3.1;paint-order:markers stroke fill"
           d="m 16.48941,57.884645 c -1.347305,0.56623 -1.619478,10.9713 0.08775,11.82211 0.701726,0.34971 5.58054,-1.95448 8.165139,-4.02147 0.58881,-0.4709 0.552807,-3.39527 -0.181559,-3.93342 -2.449326,-1.7949 -7.409659,-4.14525 -8.071226,-3.86722 z"
           id="path127"
           sodipodi:nodetypes="ssssss" /><path
           style="fill:#ffffff;fill-opacity:1;stroke-width:2.117;stroke-linejoin:round;stroke-miterlimit:3.1;paint-order:markers stroke fill"
           d="m 57.02458,166.28268 c 0.780113,-0.58211 1.443621,-1.39743 2.068645,-2.28972 0.252571,-0.36057 0.09747,-0.72648 -0.338001,-0.79147 -1.557335,-0.23243 -3.082016,-0.27668 -4.564091,-0.0212 -0.410513,0.0708 -0.551467,0.43495 -0.30677,0.77218 0.582924,0.80336 1.244182,1.57736 2.086892,2.2833 0.274821,0.23022 0.766109,0.26124 1.053325,0.0469 z"
           id="path128"
           sodipodi:nodetypes="cccc"
           transform="rotate(90.044846,88.795808,96.165084)"
           inkscape:original-d="m 56.481231,166.63738 c 1.226333,-0.68864 2.164292,-1.95404 3.06016,-3.30361 -2.092655,-0.39025 -4.130119,-0.47863 -6.088739,0 0.795984,1.18128 1.701156,2.32162 3.028579,3.30361 z"
           inkscape:path-effect="#path-effect143" /></g></g></g></svg>
